<?xml version="1.0" encoding="UTF-8" standalone="no"?>
<svg
   version="1.0"
   width="810.000000pt"
   height="810.000000pt"
   viewBox="0 0 810.000000 810.000000"
   preserveAspectRatio="xMidYMid meet"
   id="svg3"
   sodipodi:docname="rGb-rC-icon.svg"
   inkscape:version="1.4 (e7c3feb1, 2024-10-09)"
   xmlns:inkscape="http://www.inkscape.org/namespaces/inkscape"
   xmlns:sodipodi="http://sodipodi.sourceforge.net/DTD/sodipodi-0.dtd"
   xmlns="http://www.w3.org/2000/svg"
   xmlns:svg="http://www.w3.org/2000/svg">
  <g
     transform="translate(0.000000,810.000000) scale(0.100000,-0.100000)"
     fill="#000000"
     stroke="none"
     id="g3"
     style="fill:#00ff00">
    <path
       d="M4584 6225 c-190 -28 -408 -85 -799 -211 -176 -56 -392 -162 -507 -249 -47 -36 -128 -105 -180 -154 -51 -49 -135 -123 -185 -166 -167 -139 -299 -303 -609 -757 -328 -481 -350 -522 -433 -798 -68 -223 -76 -274 -76 -465 1 -199 19 -291 85 -433 74 -158 156 -237 279 -268 87 -22 132 -12 310 70 257 117 400 216 527 363 151 177 280 406 463 822 87 197 156 432 181 619 17 120 8 340 -18 444 l-19 77 51 10 c154 31 206 36 381 36 146 0 210 -4 275 -18 321 -69 602 -241 761 -467 115 -163 227 -371 274 -509 l22 -66 7 70 c14 137 -24 355 -89 501 -38 86 -126 212 -199 287 -192 193 -430 313 -721 363 -131 23 -571 30 -690 11 -49 -8 -91 -13 -93 -12 -2 1 66 57 150 124 175 139 143 130 384 111 463 -36 735 -128 999 -335 225 -177 368 -396 440 -676 40 -154 46 -379 16 -538 -45 -232 -143 -537 -308 -951 -190 -481 -290 -653 -513 -884 -122 -127 -208 -195 -405 -324 -88 -58 -179 -120 -201 -138 -38 -32 -184 -213 -184 -229 0 -4 30 -46 67 -94 36 -47 68 -88 69 -90 2 -2 43 26 91 61 48 36 144 103 213 149 145 97 340 281 460 433 46 58 82 95 94 95 10 1 52 -33 95 -77 73 -73 83 -88 173 -272 79 -160 106 -206 149 -250 l53 -55 4 35 c6 53 -16 253 -39 359 -32 150 -76 275 -144 414 -35 71 -67 147 -70 168 -10 55 28 128 104 203 l60 59 26 -17 c67 -44 132 -127 295 -376 48 -74 114 -162 146 -195 l59 -59 3 29 c10 84 -53 316 -135 500 -25 55 -87 177 -139 271 -73 132 -94 179 -94 209 0 28 23 84 83 206 45 92 84 168 87 168 3 1 36 -61 74 -136 37 -76 95 -187 128 -248 90 -163 348 -549 405 -605 l25 -25 -5 70 c-8 103 -58 298 -122 480 -167 470 -156 432 -154 527 2 105 26 266 79 533 101 512 138 895 101 1060 -37 168 -186 512 -281 649 -60 86 -235 260 -332 329 -82 58 -173 101 -348 162 -199 69 -281 85 -435 84 -71 -1 -171 -7 -221 -14z m-1658 -1537 c184 -335 211 -410 221 -608 9 -195 -27 -308 -136 -418 -104 -106 -233 -162 -372 -162 -135 0 -212 59 -293 225 -48 98 -66 173 -73 295 -9 166 26 307 108 447 35 58 212 250 282 305 35 28 138 77 163 78 5 0 50 -73 100 -162z"
       id="path1"
       style="fill:#00ff00" />
    <path
       d="M1384 5241 c-33 -22 -99 -80 -145 -128 -185 -193 -313 -448 -335 -668 l-6 -70 27 25 c63 57 244 262 312 353 128 173 192 302 213 430 16 99 7 107 -66 58z"
       id="path2"
       style="fill:#00ff00" />
    <path
       d="M1900 5074 c-74 -49 -203 -183 -267 -275 -115 -168 -196 -368 -208 -515 l-6 -79 85 90 c246 257 388 460 441 628 24 74 34 187 17 187 -4 0 -32 -16 -62 -36z"
       id="path3"
       style="fill:#00ff00" />
  </g>
</svg>
